<svg version="1.1" id="Layer_1" xmlns="http://www.w3.org/2000/svg" xmlns:xlink="http://www.w3.org/1999/xlink" x="0px" y="0px"
	 width="100%" viewBox="0 0 447 559" enable-background="new 0 0 447 559" xml:space="preserve">
<path fill="#000000" opacity="1.000000" stroke="none" 
	d="
M395.000000,560.000000 
	C263.333374,560.000000 132.166733,560.000000 1.000070,560.000000 
	C1.000047,373.666748 1.000047,187.333481 1.000023,1.000170 
	C149.999893,1.000114 298.999786,1.000114 447.999756,1.000057 
	C447.999817,187.333176 447.999817,373.666351 447.999908,559.999756 
	C430.500000,560.000000 413.000000,560.000000 395.000000,560.000000 
M273.759827,405.076843 
	C273.680573,405.250092 273.601318,405.423309 273.522034,405.596558 
	C273.697906,405.408539 273.873749,405.220490 274.084198,404.984222 
	C274.084198,404.984222 273.963440,404.945953 273.759827,405.076843 
M312.771057,390.915802 
	C312.890656,390.939972 313.010254,390.964142 313.129852,390.988342 
	C313.047852,390.931183 312.965851,390.874023 312.771057,390.915802 
M294.288757,380.732208 
	C294.394684,380.928589 294.500641,381.124969 294.606598,381.321320 
	C294.567780,381.094940 294.528931,380.868530 294.288757,380.732208 
M313.796082,375.357574 
	C313.921936,375.485046 314.047791,375.612518 314.173645,375.739990 
	C314.095001,375.582458 314.016327,375.424927 313.796082,375.357574 
M295.800293,398.046600 
	C295.800293,398.046600 295.845764,398.342834 295.845764,398.342834 
	C295.845764,398.342834 295.920868,398.056091 295.800293,398.046600 
M310.129059,396.953979 
	C310.193024,396.956360 310.257019,396.958771 310.129059,396.953979 
M332.137665,210.098007 
	C332.137665,210.098007 332.204803,210.105148 332.137665,210.098007 
M333.428253,227.456726 
	C333.428253,227.456726 333.447205,227.405304 333.428253,227.456726 
M351.494354,215.565948 
	C351.494354,215.565948 351.555756,215.370789 351.555756,215.370789 
	C351.555756,215.370789 351.425934,215.522415 351.494354,215.565948 
M310.554352,367.438416 
	C310.554352,367.438416 310.575439,367.501312 310.554352,367.438416 
M311.585297,372.042145 
	C311.585297,372.042145 311.463745,371.866364 311.463745,371.866364 
	C311.463745,371.866364 311.474731,372.084442 311.585297,372.042145 
M347.535980,208.002243 
	C347.535980,208.002243 347.482849,208.018082 347.535980,208.002243 
M292.500458,395.133331 
	C292.500458,395.133331 292.587463,394.888153 292.587463,394.888153 
	C292.587463,394.888153 292.391205,395.044128 292.500458,395.133331 
M289.503235,388.912933 
	C289.503235,388.912933 289.437134,389.086029 289.437134,389.086029 
	C289.437134,389.086029 289.580658,388.977753 289.503235,388.912933 
M307.389343,382.934937 
	C307.389343,382.934937 307.559326,383.171631 307.559326,383.171631 
	C307.559326,383.171631 307.537964,382.872345 307.389343,382.934937 
M300.434570,372.970886 
	C300.434570,372.970886 300.528259,372.937317 300.434570,372.970886 
M297.507812,368.896576 
	C297.507812,368.896576 297.432709,369.099670 297.432709,369.099670 
	C297.432709,369.099670 297.598541,368.971588 297.507812,368.896576 
M327.446991,218.980896 
	C327.446991,218.980896 327.526428,218.954071 327.446991,218.980896 
M347.470764,223.001297 
	C347.470764,223.001297 347.519501,222.987366 347.470764,223.001297 
M295.563538,365.946991 
	C295.563538,365.946991 295.559143,366.019562 295.563538,365.946991 
M338.462219,228.000763 
	C338.462219,228.000763 338.513306,227.985764 338.462219,228.000763 
M335.434174,229.499420 
	C335.434174,229.499420 335.523041,229.454269 335.434174,229.499420 
M306.495483,399.447388 
	C306.495483,399.447388 306.529236,399.519714 306.495483,399.447388 
M353.561340,219.499283 
	C353.561340,219.499283 353.478668,219.540253 353.561340,219.499283 
M349.453278,221.505157 
	C349.453278,221.505157 349.518433,221.476151 349.453278,221.505157 
M335.503906,225.549133 
	C335.503906,225.549133 335.472809,225.480804 335.503906,225.549133 
M327.558868,361.498291 
	C327.558868,361.498291 327.480927,361.535980 327.558868,361.498291 
M329.510254,379.540497 
	C329.510254,379.540497 329.485535,379.480530 329.510254,379.540497 
M316.535278,377.491821 
	C316.535278,377.491821 316.475159,377.515778 316.535278,377.491821 
M353.534088,215.489883 
	C353.534088,215.489883 353.481781,215.508728 353.534088,215.489883 
M330.481781,363.481110 
	C330.481781,363.481110 330.487854,363.515808 330.481781,363.481110 
M360.442383,215.501221 
	C360.442383,215.501221 360.524231,215.461182 360.442383,215.501221 
M299.514252,370.522888 
	C299.514252,370.522888 299.507141,370.487427 299.514252,370.522888 
z"/>
<path fill="#020202" opacity="1.000000" stroke="none" 
	d="
M274.049622,405.032471 
	C273.873749,405.220490 273.697906,405.408539 273.522034,405.596558 
	C273.601318,405.423309 273.680573,405.250092 273.886658,405.029572 
	C274.013458,404.982300 274.049622,405.032471 274.049622,405.032471 
z"/>
<path fill="#080808" opacity="1.000000" stroke="none" 
	d="
M312.827454,390.866333 
	C312.965851,390.874023 313.047852,390.931183 313.129852,390.988342 
	C313.010254,390.964142 312.890656,390.939972 312.827454,390.866333 
z"/>
<path fill="#080808" opacity="1.000000" stroke="none" 
	d="
M294.389435,380.687195 
	C294.528931,380.868530 294.567780,381.094940 294.606598,381.321320 
	C294.500641,381.124969 294.394684,380.928589 294.389435,380.687195 
z"/>
<path fill="#060606" opacity="1.000000" stroke="none" 
	d="
M313.866882,375.312500 
	C314.016327,375.424927 314.095001,375.582458 314.173645,375.739990 
	C314.047791,375.612518 313.921936,375.485046 313.866882,375.312500 
z"/>
<path fill="#080808" opacity="1.000000" stroke="none" 
	d="
M295.860596,398.051331 
	C295.920868,398.056091 295.845764,398.342834 295.845764,398.342834 
	C295.845764,398.342834 295.800293,398.046600 295.860596,398.051331 
z"/>
<path fill="#080808" opacity="1.000000" stroke="none" 
	d="
M310.225037,396.957581 
	C310.257019,396.958771 310.193024,396.956360 310.225037,396.957581 
z"/>
<path fill="#070707" opacity="1.000000" stroke="none" 
	d="
M332.171234,210.101578 
	C332.204803,210.105148 332.137665,210.098007 332.171234,210.101578 
z"/>
<path fill="#070707" opacity="1.000000" stroke="none" 
	d="
M333.437744,227.431015 
	C333.447205,227.405304 333.428253,227.456726 333.437744,227.431015 
z"/>
<path fill="#070707" opacity="1.000000" stroke="none" 
	d="
M351.460144,215.544189 
	C351.425934,215.522415 351.555756,215.370789 351.555756,215.370789 
	C351.555756,215.370789 351.494354,215.565948 351.460144,215.544189 
z"/>
<path fill="#060606" opacity="1.000000" stroke="none" 
	d="
M310.564880,367.469849 
	C310.575439,367.501312 310.554352,367.438416 310.564880,367.469849 
z"/>
<path fill="#060606" opacity="1.000000" stroke="none" 
	d="
M311.530029,372.063293 
	C311.474731,372.084442 311.463745,371.866364 311.463745,371.866364 
	C311.463745,371.866364 311.585297,372.042145 311.530029,372.063293 
z"/>
<path fill="#070707" opacity="1.000000" stroke="none" 
	d="
M347.509399,208.010162 
	C347.482849,208.018082 347.535980,208.002243 347.509399,208.010162 
z"/>
<path fill="#080808" opacity="1.000000" stroke="none" 
	d="
M292.445831,395.088745 
	C292.391205,395.044128 292.587463,394.888153 292.587463,394.888153 
	C292.587463,394.888153 292.500458,395.133331 292.445831,395.088745 
z"/>
<path fill="#080808" opacity="1.000000" stroke="none" 
	d="
M289.541931,388.945343 
	C289.580658,388.977753 289.437134,389.086029 289.437134,389.086029 
	C289.437134,389.086029 289.503235,388.912933 289.541931,388.945343 
z"/>
<path fill="#080808" opacity="1.000000" stroke="none" 
	d="
M307.463654,382.903625 
	C307.537964,382.872345 307.559326,383.171631 307.559326,383.171631 
	C307.559326,383.171631 307.389343,382.934937 307.463654,382.903625 
z"/>
<path fill="#080808" opacity="1.000000" stroke="none" 
	d="
M300.481415,372.954102 
	C300.528259,372.937317 300.434570,372.970886 300.481415,372.954102 
z"/>
<path fill="#080808" opacity="1.000000" stroke="none" 
	d="
M297.553162,368.934082 
	C297.598541,368.971588 297.432709,369.099670 297.432709,369.099670 
	C297.432709,369.099670 297.507812,368.896576 297.553162,368.934082 
z"/>
<path fill="#070707" opacity="1.000000" stroke="none" 
	d="
M327.486694,218.967484 
	C327.526428,218.954071 327.446991,218.980896 327.486694,218.967484 
z"/>
<path fill="#070707" opacity="1.000000" stroke="none" 
	d="
M347.495117,222.994324 
	C347.519501,222.987366 347.470764,223.001297 347.495117,222.994324 
z"/>
<path fill="#080808" opacity="1.000000" stroke="none" 
	d="
M295.561340,365.983276 
	C295.559143,366.019562 295.563538,365.946991 295.561340,365.983276 
z"/>
<path fill="#070707" opacity="1.000000" stroke="none" 
	d="
M338.487762,227.993256 
	C338.513306,227.985764 338.462219,228.000763 338.487762,227.993256 
z"/>
<path fill="#070707" opacity="1.000000" stroke="none" 
	d="
M335.478607,229.476837 
	C335.523041,229.454269 335.434174,229.499420 335.478607,229.476837 
z"/>
<path fill="#020202" opacity="1.000000" stroke="none" 
	d="
M273.988464,404.964111 
	C273.963440,404.945953 274.084198,404.984222 274.066895,405.008362 
	C274.049622,405.032471 274.013458,404.982300 273.988464,404.964111 
z"/>
<path fill="#080808" opacity="1.000000" stroke="none" 
	d="
M306.512360,399.483551 
	C306.529236,399.519714 306.495483,399.447388 306.512360,399.483551 
z"/>
<path fill="#070707" opacity="1.000000" stroke="none" 
	d="
M353.520020,219.519775 
	C353.478668,219.540253 353.561340,219.499283 353.520020,219.519775 
z"/>
<path fill="#070707" opacity="1.000000" stroke="none" 
	d="
M349.485840,221.490662 
	C349.518433,221.476151 349.453278,221.505157 349.485840,221.490662 
z"/>
<path fill="#070707" opacity="1.000000" stroke="none" 
	d="
M335.488342,225.514969 
	C335.472809,225.480804 335.503906,225.549133 335.488342,225.514969 
z"/>
<path fill="#060606" opacity="1.000000" stroke="none" 
	d="
M327.519897,361.517151 
	C327.480927,361.535980 327.558868,361.498291 327.519897,361.517151 
z"/>
<path fill="#060606" opacity="1.000000" stroke="none" 
	d="
M329.497894,379.510498 
	C329.485535,379.480530 329.510254,379.540497 329.497894,379.510498 
z"/>
<path fill="#060606" opacity="1.000000" stroke="none" 
	d="
M316.505219,377.503784 
	C316.475159,377.515778 316.535278,377.491821 316.505219,377.503784 
z"/>
<path fill="#070707" opacity="1.000000" stroke="none" 
	d="
M353.507935,215.499298 
	C353.481781,215.508728 353.534088,215.489883 353.507935,215.499298 
z"/>
<path fill="#060606" opacity="1.000000" stroke="none" 
	d="
M330.484802,363.498474 
	C330.487854,363.515808 330.481781,363.481110 330.484802,363.498474 
z"/>
<path fill="#070707" opacity="1.000000" stroke="none" 
	d="
M360.483307,215.481201 
	C360.524231,215.461182 360.442383,215.501221 360.483307,215.481201 
z"/>
<path fill="#080808" opacity="1.000000" stroke="none" 
	d="
M299.510681,370.505157 
	C299.507141,370.487427 299.514252,370.522888 299.510681,370.505157 
z"/>
</svg>