<?xml version="1.0" standalone="no"?>
<!DOCTYPE svg PUBLIC "-//W3C//DTD SVG 20010904//EN"
 "http://www.w3.org/TR/2001/REC-SVG-20010904/DTD/svg10.dtd">
<svg version="1.0" xmlns="http://www.w3.org/2000/svg"
 width="1080.000000pt" height="1350.000000pt" viewBox="0 0 1080.000000 1350.000000"
 preserveAspectRatio="xMidYMid meet">

<g transform="translate(0.000000,1350.000000) scale(0.100000,-0.100000)"
fill="#000000" stroke="none">
<path d="M4680 10408 c-19 -6 -39 -13 -45 -18 -5 -4 -32 -10 -58 -14 -43 -5
-83 -15 -237 -60 -64 -19 -64 -2 14 -300 9 -33 20 -64 26 -70 5 -5 10 -25 10
-42 0 -18 5 -45 11 -61 6 -15 18 -57 25 -93 8 -36 22 -96 32 -135 18 -70 18
-70 55 -73 27 -2 39 1 43 13 4 9 -8 69 -25 133 -60 220 -60 215 17 227 26 3
57 13 69 21 12 8 55 19 95 24 39 6 73 11 74 13 12 15 12 46 -2 58 -13 11 -36
8 -147 -20 -73 -18 -139 -37 -148 -42 -25 -13 -33 3 -68 139 -36 142 -37 152
-13 152 10 0 26 6 37 14 11 7 45 16 75 20 30 4 80 16 112 27 32 10 65 19 75
19 30 0 41 14 36 42 -6 33 -18 38 -63 26z"/>
<path d="M5159 10258 c-33 -14 -54 -33 -69 -60 -25 -44 -40 -42 -40 7 0 35
-13 45 -56 45 -22 0 -24 -4 -24 -43 0 -23 7 -74 15 -112 8 -39 15 -115 15
-170 0 -57 7 -126 15 -159 9 -32 14 -65 13 -73 -4 -23 28 -40 50 -27 15 10 17
25 14 110 -2 55 -10 127 -18 161 -14 58 -14 66 5 130 23 77 45 103 109 129 35
13 48 14 69 5 32 -15 45 -1 41 44 -3 28 -6 30 -48 32 -29 2 -62 -5 -91 -19z"/>
<path d="M5640 10271 c-14 -4 -40 -11 -58 -16 -18 -4 -54 -28 -81 -54 -67 -64
-94 -136 -94 -256 0 -80 3 -97 29 -150 21 -44 42 -69 79 -95 47 -33 55 -35
143 -38 129 -5 153 1 204 52 71 71 103 156 102 273 0 40 -6 86 -13 101 -38 81
-48 96 -83 124 -25 19 -65 36 -116 49 -42 10 -79 18 -82 18 -3 -1 -16 -5 -30
-8z m121 -86 c62 -24 67 -29 90 -77 20 -43 24 -66 23 -135 -2 -88 -12 -126
-52 -186 -34 -50 -108 -74 -183 -58 -108 23 -144 78 -143 218 1 80 4 98 30
150 24 47 38 63 79 85 62 34 73 34 156 3z"/>
<path d="M6161 10058 c-52 -178 -58 -196 -94 -313 -37 -118 -36 -145 7 -145
19 0 29 10 45 43 12 24 21 49 21 57 0 14 25 95 62 201 47 134 133 183 258 145
38 -11 49 -20 68 -58 l23 -46 -31 -108 c-18 -60 -36 -122 -40 -139 -5 -16 -20
-64 -34 -105 -14 -41 -26 -78 -26 -82 0 -4 14 -15 32 -24 30 -15 32 -15 45 2
7 10 13 30 13 44 0 14 4 30 10 36 5 5 30 76 55 158 71 235 61 317 -46 371 -64
33 -181 36 -213 6 -12 -11 -30 -21 -41 -23 -16 -2 -19 2 -17 20 1 12 3 32 5
45 2 19 -3 22 -34 25 l-35 3 -33 -113z"/>
<path d="M6960 10014 c-6 -14 -10 -29 -10 -33 0 -4 -9 -16 -19 -25 -18 -16
-21 -16 -57 0 -22 10 -42 19 -45 21 -3 2 -11 -9 -18 -24 -11 -24 -10 -29 11
-45 13 -10 31 -20 41 -24 24 -8 22 -19 -24 -109 -129 -249 -149 -294 -149
-331 0 -55 34 -99 104 -134 89 -45 126 -39 126 21 0 14 -10 20 -41 25 -22 4
-54 18 -70 31 -47 40 -41 72 57 261 47 92 89 171 93 175 8 8 86 -25 133 -57
35 -23 58 -15 58 21 0 25 -9 32 -71 63 -39 19 -73 39 -76 43 -3 5 7 31 21 59
32 61 32 74 4 82 -42 11 -58 6 -68 -20z"/>
<path d="M3571 9760 c-75 -42 -123 -118 -106 -170 10 -31 -10 -23 -42 16 l-29
36 -29 -24 -29 -25 89 -129 c49 -71 123 -180 164 -241 43 -65 82 -113 90 -113
22 1 51 24 51 42 0 13 -103 172 -135 208 -7 8 -29 45 -49 83 -61 115 -46 187
50 243 43 25 52 43 38 78 -8 20 -21 19 -63 -4z"/>
<path d="M7338 9635 c-4 -4 -25 -11 -48 -16 -99 -22 -210 -147 -245 -275 -17
-61 -17 -68 0 -119 23 -75 58 -119 132 -169 38 -25 49 -27 133 -27 51 0 97 4
102 9 5 5 5 19 -1 35 -10 26 -12 27 -69 21 -76 -8 -135 16 -185 78 -33 40 -37
51 -37 102 0 44 6 68 26 101 28 48 40 49 84 10 47 -41 272 -205 282 -205 36 0
118 138 118 200 0 108 -92 219 -199 240 -20 4 -47 10 -61 14 -14 4 -28 4 -32
1z m160 -124 c29 -36 62 -92 62 -105 0 -19 -47 -123 -59 -130 -5 -3 -22 4 -38
17 -15 12 -38 29 -49 37 -55 38 -180 136 -182 143 -7 19 41 60 89 77 52 18 54
18 109 -3 30 -11 61 -27 68 -36z"/>
<path d="M3996 9434 c-19 -19 -21 -64 -3 -88 19 -26 75 -18 100 16 l20 26 -22
31 c-25 35 -69 42 -95 15z"/>
<path d="M3105 9392 c-82 -29 -165 -109 -194 -185 -48 -125 60 -318 219 -395
65 -31 148 -36 177 -10 10 8 30 18 45 22 36 8 115 87 138 139 21 44 26 122 11
146 -8 12 -14 13 -35 3 -20 -9 -26 -19 -26 -44 0 -40 -29 -104 -63 -139 -14
-14 -50 -36 -81 -49 -54 -22 -57 -22 -98 -5 -49 19 -108 61 -108 76 0 5 63 71
140 146 94 91 140 143 140 158 0 24 -57 82 -114 114 -41 24 -117 35 -151 23z
m114 -94 c68 -40 68 -44 -2 -117 -34 -36 -88 -89 -120 -119 -65 -60 -73 -59
-108 9 -37 73 -15 147 63 213 52 44 109 49 167 14z"/>
<path d="M7814 9234 c-21 -20 -66 -59 -99 -87 -33 -28 -89 -78 -125 -112 -36
-33 -86 -78 -112 -100 -53 -44 -60 -71 -28 -100 19 -17 21 -17 52 13 96 90
249 214 291 237 62 32 96 32 149 -4 64 -44 89 -75 95 -119 8 -59 -14 -88 -186
-241 -84 -74 -151 -141 -151 -151 0 -16 29 -50 43 -50 3 0 14 8 24 18 10 10
47 42 83 72 36 29 83 70 105 91 22 21 60 55 84 76 43 37 91 119 91 156 0 27
-36 100 -66 136 -36 43 -97 73 -163 80 l-54 6 26 31 c15 18 27 36 27 41 0 10
-32 43 -41 43 -3 0 -23 -16 -45 -36z"/>
<path d="M2625 8870 c-55 -30 -78 -53 -109 -110 -28 -52 -35 -102 -23 -162 9
-45 -5 -50 -46 -18 -33 26 -34 26 -52 -11 -20 -38 -15 -45 75 -105 36 -24 135
-91 220 -149 85 -58 199 -136 254 -173 54 -37 104 -71 111 -76 24 -18 63 35
46 61 -9 15 -138 103 -150 103 -6 0 -11 5 -11 11 0 5 -15 16 -34 24 -28 12
-46 32 -46 51 0 2 8 4 18 5 42 1 127 55 160 101 79 112 65 224 -41 332 -115
117 -277 167 -372 116z m182 -92 c134 -63 213 -160 197 -243 -9 -50 -58 -121
-96 -141 -82 -44 -228 1 -308 94 -52 62 -67 110 -52 170 17 63 39 91 103 129
60 35 62 35 156 -9z"/>
<path d="M8163 8643 c-12 -2 -27 -11 -33 -19 -7 -8 -21 -14 -31 -14 -23 0 -69
-21 -69 -31 0 -4 -9 -11 -20 -14 -29 -9 -97 -80 -120 -126 -28 -54 -26 -129 5
-194 30 -64 79 -108 145 -132 27 -10 50 -20 50 -24 0 -3 -11 -12 -25 -19 -30
-16 -40 -42 -25 -70 12 -22 40 -26 57 -9 10 10 47 32 118 69 22 11 58 31 80
44 22 14 54 32 70 40 17 9 64 35 106 58 42 24 128 72 192 108 121 67 128 75
106 123 l-11 24 -36 -20 c-21 -10 -55 -30 -77 -42 -79 -46 -173 -93 -177 -89
-3 2 -1 28 2 56 11 80 -2 140 -41 192 -59 79 -154 111 -266 89z m140 -87 c43
-17 93 -76 108 -126 10 -31 10 -52 0 -94 -10 -46 -19 -60 -59 -93 -25 -21 -75
-52 -111 -70 -87 -44 -139 -44 -200 0 -117 85 -113 245 8 319 121 74 190 91
254 64z"/>
<path d="M2284 8235 c-94 -43 -157 -149 -157 -264 -1 -113 53 -186 182 -248
63 -30 90 -37 156 -41 72 -4 85 -2 130 22 62 34 79 49 109 100 48 83 58 205
22 274 -34 66 -134 136 -235 166 -78 23 -146 20 -207 -9z m185 -75 c83 -32
144 -66 171 -94 35 -38 41 -145 12 -202 -38 -74 -88 -104 -171 -104 -88 0
-230 81 -267 151 -53 103 45 267 161 268 22 1 64 -8 94 -19z"/>
<path d="M8845 7740 c-44 -10 -147 -31 -230 -45 -82 -15 -172 -33 -200 -40
-27 -8 -86 -19 -129 -25 -44 -6 -82 -13 -84 -15 -8 -8 39 -246 64 -324 33
-105 88 -173 168 -211 58 -28 72 -30 171 -30 91 0 121 4 184 26 42 14 83 32
92 40 8 8 20 14 26 14 22 0 93 93 113 146 22 61 27 178 9 254 -6 25 -16 80
-24 123 -21 118 -23 119 -160 87z m85 -82 c0 -2 7 -41 15 -88 23 -129 21 -222
-7 -279 -42 -85 -177 -151 -325 -158 -110 -6 -180 23 -234 97 -38 52 -76 178
-82 270 l-2 44 90 18 c50 10 127 24 173 32 46 8 89 19 96 25 6 5 58 15 116 20
57 6 106 13 108 16 5 5 52 7 52 3z"/>
<path d="M1759 7613 c-15 -38 0 -57 47 -61 21 -2 44 -8 50 -13 6 -5 57 -18
112 -29 56 -11 114 -25 128 -30 14 -6 36 -10 50 -10 14 0 50 -9 82 -19 31 -11
86 -23 121 -27 36 -4 76 -13 90 -20 34 -18 76 -18 95 1 8 8 19 15 24 15 16 0
40 34 50 72 8 31 7 39 -8 53 -24 21 -48 10 -65 -32 -14 -34 -17 -35 -57 -30
-55 6 -177 32 -248 52 -30 8 -72 15 -93 15 -21 0 -52 7 -68 16 -17 8 -52 19
-77 24 -26 4 -74 15 -107 23 -119 30 -114 30 -126 0z"/>
<path d="M2075 7291 c-118 -32 -190 -160 -165 -293 15 -78 76 -158 145 -189
52 -24 287 -27 338 -5 145 62 186 320 69 429 -17 16 -38 27 -49 25 -25 -5 -29
-45 -6 -71 45 -51 55 -78 51 -136 -5 -70 -33 -129 -76 -158 -35 -23 -138 -41
-152 -27 -4 5 -1 100 7 212 8 112 12 206 9 209 -9 10 -139 13 -171 4z m101
-84 c2 -2 -23 -329 -25 -336 -2 -8 -59 12 -97 34 -51 30 -74 75 -74 144 0 91
43 156 110 164 29 3 81 0 86 -6z"/>
<path d="M8520 6904 c-14 -3 -34 -9 -45 -13 -11 -5 -35 -14 -53 -21 -37 -14
-88 -69 -108 -116 -9 -21 -14 -71 -14 -130 0 -91 2 -100 30 -144 36 -56 72
-79 95 -60 21 17 19 43 -6 66 -36 32 -49 70 -49 139 0 105 45 164 140 184 87
19 80 37 78 -206 l-3 -218 61 -3 c71 -3 163 24 201 59 44 42 66 104 66 188 0
166 -107 264 -298 275 -38 3 -81 2 -95 0z m206 -105 c108 -27 157 -174 91
-270 -25 -36 -109 -73 -146 -64 -24 6 -24 6 -17 112 3 58 6 135 6 170 0 69 -1
68 66 52z"/>
<path d="M1900 6623 c0 -41 28 -63 97 -78 32 -7 85 -20 118 -29 32 -9 74 -16
92 -16 19 0 44 -6 56 -14 12 -8 38 -17 57 -21 70 -14 110 -26 110 -34 0 -10
-48 -40 -145 -90 -33 -18 -67 -36 -75 -40 -8 -5 -68 -35 -132 -67 l-118 -59 0
-42 c0 -28 4 -43 13 -43 6 1 53 23 102 49 50 27 127 67 172 90 44 22 84 45 88
50 3 6 13 11 21 11 8 0 51 21 94 46 l80 46 0 43 c0 65 -7 75 -50 75 -21 0 -43
6 -49 14 -6 8 -33 17 -59 21 -26 4 -73 15 -104 26 -32 10 -75 19 -96 19 -21 0
-43 5 -49 11 -7 7 -49 20 -95 31 -46 10 -93 21 -105 25 -20 5 -23 1 -23 -24z"/>
<path d="M8809 6236 c-6 -6 -126 -22 -274 -37 -60 -6 -125 -17 -144 -25 -18
-8 -57 -14 -86 -14 -59 0 -68 -7 -82 -67 -9 -37 -8 -44 11 -61 19 -17 118 -85
245 -168 51 -33 62 -41 164 -111 42 -29 83 -53 91 -53 16 0 38 60 27 71 -3 3
-86 59 -183 123 -98 64 -180 121 -183 126 -4 6 -14 10 -24 10 -24 0 -58 48
-39 55 23 9 141 25 248 35 58 6 122 17 143 25 20 8 59 15 86 15 52 0 61 8 61
56 0 20 -5 24 -28 24 -16 0 -31 -2 -33 -4z"/>
<path d="M2440 6050 c0 -21 5 -30 16 -30 9 0 32 -9 50 -21 37 -22 94 -127 94
-172 0 -59 -81 -157 -143 -172 -32 -8 -38 5 -102 215 -26 85 -54 160 -62 166
-16 13 -51 5 -121 -30 -57 -28 -90 -61 -113 -114 -23 -54 -24 -103 -3 -168 25
-73 63 -124 119 -158 46 -29 57 -31 140 -31 70 0 97 4 118 18 14 9 35 17 45
17 11 0 31 9 45 20 14 11 29 20 34 20 14 0 69 62 89 100 25 49 24 150 -1 219
-12 32 -39 74 -66 103 -41 44 -49 48 -92 48 -46 0 -47 -1 -47 -30z m-151 -192
c40 -117 63 -197 65 -223 1 -17 -6 -20 -51 -23 -90 -5 -162 52 -184 147 -14
60 -1 100 49 148 70 66 83 61 121 -49z"/>
<path d="M8177 5702 c-105 -38 -177 -148 -177 -274 0 -68 14 -112 43 -136 11
-9 19 -7 37 13 22 23 22 25 6 49 -33 51 -12 170 41 227 36 40 103 55 171 41
63 -13 80 -25 65 -44 -16 -20 -163 -348 -163 -364 0 -7 10 -16 23 -19 12 -4
41 -16 65 -27 34 -16 58 -19 111 -16 62 3 73 7 116 43 79 64 117 175 95 279
-21 103 -129 192 -277 230 -76 20 -96 20 -156 -2z m316 -176 c73 -68 74 -169
1 -254 -35 -42 -36 -42 -102 -42 -40 1 -74 6 -85 14 -20 16 -21 15 48 161 26
55 54 115 62 132 17 36 27 35 76 -11z"/>
<path d="M2453 5410 c-35 -17 -63 -35 -63 -40 0 -6 -7 -10 -16 -10 -22 0 -119
-95 -151 -149 -25 -42 -27 -55 -28 -146 0 -80 4 -107 18 -128 9 -14 17 -34 17
-42 0 -9 13 -35 29 -58 15 -23 36 -58 46 -77 10 -19 31 -56 47 -82 28 -43 32
-45 60 -37 16 4 36 13 44 20 16 13 64 40 110 63 17 8 36 22 44 30 7 9 19 16
26 16 8 0 22 9 31 20 10 11 24 20 31 20 18 0 112 60 112 72 0 4 8 8 17 8 19 0
217 116 235 137 8 10 7 18 -4 31 -9 9 -25 36 -37 59 -38 76 -128 207 -168 244
-76 72 -95 79 -223 79 -107 0 -119 -2 -177 -30z m255 -50 c24 -6 59 -23 78
-38 35 -27 138 -171 162 -226 15 -34 21 -29 -136 -123 -166 -100 -185 -111
-202 -119 -8 -4 -40 -24 -70 -43 -60 -39 -120 -71 -132 -71 -10 0 -116 182
-124 214 -3 14 -10 29 -15 32 -5 3 -9 28 -9 55 0 57 34 133 77 173 71 65 111
94 142 105 19 6 42 18 50 25 14 13 44 19 116 24 11 1 39 -3 63 -8z"/>
<path d="M7803 5163 c-34 -37 -47 -72 -32 -89 17 -21 43 -17 67 11 40 46 62
39 217 -62 71 -48 175 -115 230 -151 55 -35 112 -73 127 -83 15 -11 31 -19 36
-19 5 0 17 -9 27 -20 23 -26 71 -26 85 -1 16 31 13 36 -42 71 -29 18 -116 75
-193 125 -360 238 -372 245 -437 245 -51 0 -62 -4 -85 -27z"/>
<path d="M7654 4922 c-87 -41 -153 -123 -174 -216 -18 -80 24 -191 96 -257 57
-52 117 -88 172 -105 49 -14 66 -15 116 -5 33 7 74 22 91 34 40 27 106 110
125 157 20 48 16 126 -9 183 -27 63 -109 148 -180 188 -73 42 -174 50 -237 21z
m182 -88 c57 -30 141 -113 160 -161 31 -72 12 -153 -49 -210 -62 -59 -150 -66
-222 -17 -20 13 -38 24 -42 24 -8 0 -85 89 -105 122 -25 41 -24 124 3 167 60
98 157 127 255 75z"/>
<path d="M7132 4750 c-12 -12 -22 -28 -22 -36 0 -8 38 -68 85 -133 47 -66 85
-121 85 -124 0 -3 -26 -3 -58 0 -45 4 -68 1 -103 -15 -55 -25 -113 -80 -140
-134 -81 -159 116 -458 303 -458 111 0 238 114 238 215 0 41 11 44 38 10 11
-14 27 -25 37 -25 22 0 55 18 55 31 0 12 -101 156 -234 336 -50 67 -127 173
-171 237 -43 64 -82 116 -85 116 -3 0 -16 -9 -28 -20z m183 -374 c41 -26 104
-101 131 -153 58 -115 25 -222 -84 -270 -69 -30 -88 -29 -152 10 -41 24 -67
50 -106 109 -52 79 -66 123 -56 186 6 43 75 117 122 131 41 12 116 5 145 -13z"/>
<path d="M3450 4488 c-59 -28 -92 -57 -141 -118 -92 -117 -121 -231 -79 -312
29 -56 55 -84 110 -116 39 -24 55 -27 123 -25 42 1 77 -2 77 -8 0 -5 -40 -63
-90 -130 -49 -66 -90 -124 -90 -128 0 -9 47 -51 58 -51 5 0 31 33 58 72 27 40
106 149 175 243 70 93 157 214 193 268 63 93 66 100 49 113 -28 21 -59 17 -77
-11 -20 -31 -36 -24 -36 15 0 43 -15 74 -57 121 -75 83 -184 110 -273 67z
m181 -83 c57 -32 91 -83 97 -144 6 -63 -10 -107 -64 -181 -97 -133 -204 -153
-309 -57 -42 38 -47 47 -52 97 -6 59 14 118 61 184 84 118 176 153 267 101z"/>
<path d="M4034 4171 c-39 -10 -83 -42 -84 -60 0 -8 7 -22 16 -32 15 -16 17
-16 50 3 70 41 186 9 251 -70 17 -21 22 -40 23 -83 0 -62 -16 -119 -33 -119
-17 0 -114 38 -140 54 -12 8 -36 17 -54 21 -17 3 -37 13 -44 21 -6 8 -20 14
-31 14 -10 0 -31 9 -46 20 -15 11 -38 21 -52 22 -20 3 -28 -5 -48 -47 -26 -54
-38 -134 -28 -187 9 -52 70 -116 140 -149 120 -57 247 -28 328 74 21 27 38 56
38 65 0 10 7 26 15 36 8 11 15 29 15 41 0 12 5 26 10 31 21 21 23 110 4 163
-43 120 -210 212 -330 182z m-64 -313 c62 -30 184 -85 223 -102 l38 -16 -18
-31 c-10 -17 -33 -43 -52 -58 -29 -22 -45 -26 -97 -26 -53 0 -69 4 -105 30
-59 42 -82 100 -63 162 15 51 23 65 32 61 4 -2 23 -11 42 -20z"/>
<path d="M6588 4136 c-70 -24 -83 -31 -135 -80 -40 -37 -71 -119 -53 -141 15
-18 59 -20 64 -2 3 6 7 25 11 41 10 45 62 90 129 110 56 18 62 18 112 2 43
-14 59 -26 89 -67 21 -27 35 -55 32 -62 -3 -6 -41 -27 -86 -46 -45 -19 -81
-38 -81 -43 0 -4 -8 -8 -19 -8 -25 0 -163 -64 -179 -83 -15 -18 -5 -46 46
-124 49 -76 82 -93 179 -93 67 0 88 4 129 26 66 34 89 58 119 118 45 89 28
209 -46 331 -40 67 -87 106 -153 128 -62 21 -76 21 -158 -7z m292 -302 c16
-40 12 -91 -10 -134 -41 -81 -172 -122 -237 -74 -33 25 -75 83 -70 98 4 11 11
15 102 56 28 12 68 30 90 40 105 48 112 48 125 14z"/>
<path d="M6184 3974 c-20 -14 -21 -18 -9 -67 7 -30 17 -62 22 -73 6 -10 13
-41 17 -68 3 -27 10 -54 15 -60 13 -16 23 -130 15 -171 -4 -21 -22 -52 -43
-75 -32 -35 -42 -39 -91 -42 l-55 -3 -3 -37 -3 -38 47 0 c74 0 128 31 156 90
13 27 26 49 30 50 3 0 9 -13 13 -29 9 -42 30 -57 60 -43 14 7 25 17 25 24 0
12 -31 140 -55 223 -17 60 -31 118 -50 205 -30 134 -42 149 -91 114z"/>
<path d="M4635 3938 c-4 -13 -23 -61 -42 -108 -19 -47 -44 -107 -55 -135 -10
-27 -23 -59 -28 -70 -5 -11 -21 -49 -35 -85 -14 -36 -30 -74 -35 -85 -5 -11
-19 -45 -30 -75 -12 -30 -31 -75 -42 -99 -22 -47 -17 -73 16 -79 21 -4 53 23
62 52 3 11 15 41 27 66 24 54 124 300 143 351 28 78 65 152 72 145 10 -10 30
-166 42 -322 5 -73 14 -144 20 -159 5 -14 10 -61 10 -103 0 -42 4 -83 8 -90 5
-7 26 -13 47 -15 l38 -2 40 90 c23 50 60 131 83 180 23 50 52 115 64 145 12
30 26 62 30 70 5 8 23 44 40 79 18 38 34 61 39 55 5 -5 14 -117 21 -249 6
-132 16 -262 21 -289 5 -27 9 -70 9 -97 0 -47 1 -48 35 -55 20 -3 38 -4 41 -1
7 7 -15 380 -43 744 l-6 72 -42 7 c-24 3 -50 4 -60 2 -11 -2 -45 -63 -99 -183
-165 -362 -178 -387 -188 -377 -9 9 -18 83 -48 393 -10 113 -22 213 -25 221
-4 9 -25 18 -52 22 -67 9 -71 8 -78 -16z"/>
<path d="M5500 3855 c-14 -36 -13 -47 6 -73 38 -55 121 0 98 65 -8 24 -16 28
-52 31 -38 3 -43 0 -52 -23z"/>
</g>
</svg>
